<svg xmlns="http://www.w3.org/2000/svg" width="202" height="87" viewBox="0 0 202 87">
    <defs>
        <linearGradient id="a" x1="71.864%" x2=".098%" y1="50.367%" y2="49.385%">
            <stop offset="0%" stop-color="#E1C652"/>
            <stop offset="28.136%" stop-color="#ECD868"/>
            <stop offset="55.556%" stop-color="#DEC04C"/>
            <stop offset="99.902%" stop-color="#D4AF37"/>
        </linearGradient>
    </defs>
    <g fill="none" fill-rule="evenodd">
        <path fill="url(#a)" fill-rule="nonzero" d="M202 0C134.668 0 67.334 39.717 0 39.717 0 47.353 10 55.363 10 63c0 8.125-10 15.876-10 24 67.334 0 134.668-39.717 202-39.717 0-8.527-5-15.755-5-24.283 0-7.233 5-15.767 5-23z"/>
        <path d="M-18 70.445c50.043-4.753 83.578-11.886 100.606-21.397C99.635 39.537 131.433 33.67 178 31.445"/>
        <path fill="#FFF" fill-rule="nonzero" d="M18.205 68.404L16.68 55.645l2.086-.249 1.526 12.759-2.086.25zm13.707-1.765l-2.056.272-.784-5.925c-.099-.744-.322-1.279-.67-1.605-.347-.327-.846-.447-1.496-.36-.866.114-1.465.453-1.798 1.017-.334.565-.42 1.448-.261 2.65l.635 4.801-2.048.271-1.275-9.637 1.603-.212.455 1.226.105-.014c.23-.498.595-.906 1.096-1.227a4.182 4.182 0 0 1 1.728-.61c2.312-.306 3.624.718 3.935 3.07l.83 6.283zm6.21-2.412a5.023 5.023 0 0 0 1.46-.457l.229 1.539a4.17 4.17 0 0 1-.837.377c-.347.12-.711.208-1.094.265-1.935.287-3.055-.589-3.358-2.63l-.769-5.18-1.313.194-.134-.904 1.297-.957.394-2.137 1.26-.187.318 2.138 2.739-.406.23 1.547-2.74.407.765 5.146c.073.493.25.838.531 1.037.282.198.622.267 1.022.208zm6.893-9.614c.41-.067.754-.093 1.03-.08l.11 1.933a3.904 3.904 0 0 0-.918.044c-.816.133-1.433.507-1.852 1.122-.418.615-.558 1.347-.42 2.197l.822 5.014-2.039.333-1.57-9.593 1.596-.261.546 1.647.104-.017a3.851 3.851 0 0 1 1.021-1.565c.457-.42.98-.677 1.57-.774zm11.978 2.896c.291 1.561.118 2.854-.519 3.88-.637 1.024-1.67 1.67-3.098 1.937-.893.167-1.72.112-2.48-.163-.761-.275-1.396-.755-1.906-1.441s-.857-1.527-1.043-2.523c-.29-1.55-.118-2.833.514-3.852.633-1.018 1.672-1.662 3.118-1.932 1.382-.258 2.56-.017 3.532.722.973.74 1.6 1.863 1.882 3.372zm-6.955 1.3c.412 2.205 1.433 3.156 3.063 2.852 1.612-.302 2.213-1.555 1.8-3.761-.407-2.183-1.423-3.123-3.047-2.82-.853.16-1.418.557-1.695 1.193-.278.636-.318 1.481-.121 2.535zm13.411 2.468c-1.184.263-2.203.04-3.057-.672-.854-.71-1.453-1.84-1.797-3.39-.345-1.557-.278-2.843.201-3.858.48-1.016 1.315-1.656 2.505-1.92 1.247-.277 2.298-.027 3.155.749l.103-.023c-.248-.66-.416-1.186-.504-1.58l-.768-3.459 2.025-.45 2.964 13.352-1.579.35-.628-1.166-.094.02c-.437 1.088-1.279 1.77-2.526 2.047zm.179-1.75c.83-.184 1.381-.551 1.655-1.101.274-.55.3-1.35.08-2.4l-.063-.282c-.266-1.196-.649-2.002-1.15-2.42-.5-.416-1.165-.533-1.995-.348-.709.157-1.191.566-1.447 1.226s-.265 1.522-.029 2.585c.234 1.053.598 1.814 1.092 2.283.494.47 1.113.622 1.857.457zm14.127-2.016l-.614-1.153-.102.028c-.158.51-.46.96-.904 1.348-.444.388-.993.671-1.65.85-1.136.31-2.06.257-2.774-.156-.714-.413-1.227-1.193-1.54-2.34l-1.668-6.132 2.01-.547 1.574 5.783c.195.718.489 1.217.88 1.496.392.279.902.333 1.53.162.836-.228 1.383-.645 1.64-1.253.257-.607.225-1.498-.095-2.674L74.77 48.25l2.001-.545 2.553 9.38-1.569.426zm8.152-2.391c-1.392.472-2.589.425-3.589-.142s-1.758-1.61-2.274-3.13c-.525-1.549-.55-2.867-.076-3.957.475-1.09 1.428-1.877 2.86-2.363.97-.33 1.905-.446 2.805-.349l-.057 1.774c-.936-.041-1.673.03-2.211.212-1.593.54-2.03 1.868-1.313 3.982.35 1.032.812 1.74 1.385 2.124.573.384 1.242.446 2.008.186a5.283 5.283 0 0 0 2.251-1.488l.58 1.706c-.28.324-.603.598-.97.821-.367.224-.833.431-1.399.624zm7.373-4.659a5.023 5.023 0 0 0 1.301-.806l.604 1.434a4.17 4.17 0 0 1-.716.574 6.086 6.086 0 0 1-.994.528c-1.803.76-3.105.19-3.906-1.71l-2.035-4.828-1.223.516-.355-.843 1.019-1.249-.151-2.168 1.174-.495.84 1.992 2.551-1.075.608 1.441-2.551 1.076 2.02 4.794c.194.46.451.75.773.872s.669.104 1.041-.053zm9.017-8.46c.747 1.4.972 2.686.672 3.855-.299 1.17-1.09 2.096-2.371 2.78-.801.428-1.606.625-2.414.591-.809-.033-1.559-.3-2.251-.8-.692-.501-1.277-1.199-1.755-2.093-.742-1.39-.965-2.666-.668-3.828.297-1.161 1.094-2.088 2.391-2.78 1.241-.663 2.436-.788 3.586-.375 1.15.412 2.087 1.296 2.81 2.65zm-6.242 3.331c1.057 1.98 2.316 2.58 3.78 1.799 1.447-.773 1.642-2.149.585-4.129-1.046-1.959-2.297-2.55-3.755-1.771-.765.408-1.184.957-1.258 1.647-.073.69.143 1.508.648 2.454zm11.926-10.714c.388-.148.72-.242.992-.284l.496 1.871a3.904 3.904 0 0 0-.891.227c-.772.294-1.302.784-1.59 1.47-.286.687-.277 1.432.03 2.237l1.809 4.747-1.93.736-3.461-9.084 1.51-.576.866 1.505.098-.038a3.851 3.851 0 0 1 .688-1.738c.363-.502.824-.86 1.383-1.073zm2.029-.565l2.158-.637 3.458 4.725c.509.668.909 1.32 1.2 1.954l.068-.02a9.238 9.238 0 0 1-.055-1.207c.005-.481.1-2.786.285-6.916l2.14-.633-.866 11.74c-.152 2.152-1.074 3.479-2.765 3.978-.438.13-.88.208-1.324.235l-.463-1.567a4.84 4.84 0 0 0 1.05-.2c.955-.283 1.463-1.035 1.524-2.256l.086-.979-6.496-8.217zm24.753-5.357c.268 1.314.042 2.41-.676 3.286-.719.875-1.873 1.475-3.464 1.8l-1.309.266.96 4.71-2.059.42-2.564-12.591 3.626-.739c1.573-.32 2.817-.239 3.732.245.914.483 1.5 1.351 1.754 2.603zm-5.801 3.62l1.093-.222c1.057-.215 1.795-.557 2.213-1.025.42-.468.55-1.092.39-1.873-.147-.723-.478-1.218-.992-1.484-.515-.266-1.24-.304-2.176-.113l-1.43.29.902 4.428zm13.147-5.823c.41-.067.753-.094 1.028-.08l.114 1.932a3.904 3.904 0 0 0-.919.044c-.815.135-1.432.51-1.85 1.125-.418.615-.557 1.348-.417 2.198l.827 5.012-2.038.336-1.582-9.59 1.596-.264.548 1.647.104-.018a3.851 3.851 0 0 1 1.02-1.566c.456-.42.979-.678 1.569-.776zm6.45 9.04l-2.044.293-1.382-9.622 2.044-.294 1.382 9.622zm-3.914-11.86c-.053-.366.007-.662.179-.888.172-.226.443-.365.814-.419.36-.051.654.007.882.176.229.168.37.435.422.8.05.348-.011.637-.182.866-.172.229-.437.369-.797.42-.371.054-.671-.005-.9-.177-.229-.171-.368-.43-.418-.779zm10.75 11.16c-1.46.181-2.622-.107-3.486-.865-.864-.758-1.395-1.934-1.592-3.527-.201-1.623.041-2.919.727-3.89.686-.97 1.779-1.548 3.28-1.734 1.017-.126 1.956-.05 2.817.227l-.415 1.725c-.908-.23-1.645-.31-2.209-.24-1.668.206-2.366 1.418-2.092 3.633.134 1.082.443 1.869.926 2.36.483.493 1.126.69 1.928.59a5.283 5.283 0 0 0 2.507-1l.22 1.787c-.339.26-.71.463-1.115.608-.404.144-.903.253-1.496.327zm7.005-.985l-2.054.22-1.03-9.667 2.053-.219 1.03 9.666zm-3.48-11.994c-.04-.367.031-.66.21-.88.18-.22.457-.35.83-.39.361-.038.653.031.875.208.222.177.353.449.392.816.037.35-.034.635-.213.858-.18.222-.45.353-.812.391-.373.04-.67-.03-.893-.21-.222-.18-.352-.444-.39-.793zm14.92 10.95l-2.066.183-.53-5.953c-.067-.747-.267-1.29-.6-1.632-.333-.34-.827-.482-1.48-.424-.87.078-1.484.391-1.84.94-.357.55-.482 1.43-.374 2.637l.43 4.824-2.058.183-.863-9.682 1.611-.144.402 1.244.105-.01c.251-.487.634-.88 1.148-1.178a4.182 4.182 0 0 1 1.753-.536c2.322-.207 3.59.872 3.8 3.235l.562 6.312zm10.385-10.499l.079 1.131-1.636.423c.166.194.31.436.43.727s.192.604.215.937c.07 1-.22 1.81-.87 2.43-.65.621-1.58.974-2.79 1.059-.31.021-.592.017-.846-.012-.425.306-.625.643-.6 1.011.016.222.131.381.347.478.215.097.6.126 1.155.087l1.693-.118c1.07-.075 1.898.097 2.485.514.587.417.91 1.055.97 1.914.077 1.1-.317 1.978-1.181 2.638-.865.66-2.153 1.049-3.866 1.168-1.321.092-2.346-.071-3.074-.49-.728-.42-1.122-1.062-1.183-1.927-.041-.596.112-1.11.461-1.543.349-.432.857-.751 1.524-.956a1.552 1.552 0 0 1-.72-.518 1.431 1.431 0 0 1-.324-.802 1.415 1.415 0 0 1 .243-.942c.187-.265.473-.535.86-.808a2.707 2.707 0 0 1-1.297-.972c-.347-.466-.543-1.026-.589-1.681-.073-1.052.202-1.89.825-2.516.623-.625 1.548-.98 2.776-1.065.274-.02.564-.02.867-.004.304.017.533.041.688.071l3.358-.234zm-6.838 11.737c.031.444.255.772.672.984.418.211.989.292 1.713.241 1.123-.078 1.947-.297 2.474-.657.527-.36.772-.805.735-1.337-.03-.421-.2-.71-.514-.867-.314-.158-.88-.208-1.698-.15l-1.56.108c-.59.041-1.05.213-1.379.515-.328.302-.476.69-.443 1.163zm.323-8.128c.043.607.232 1.064.567 1.37.336.305.796.438 1.38.397 1.193-.083 1.744-.762 1.656-2.036-.044-.632-.226-1.108-.545-1.43-.319-.32-.78-.46-1.382-.418-.596.041-1.036.242-1.319.603-.283.36-.402.865-.357 1.514zm10.553 1.98l-1.527.088-.975-8.906 2.43-.14.072 8.957zm-1.926 2.92c-.025-.433.07-.769.285-1.007.215-.239.533-.37.954-.395.415-.024.74.075.977.296.236.22.366.539.39.954.024.416-.07.751-.28 1.007-.212.256-.522.396-.932.42-.415.024-.745-.075-.99-.295-.244-.22-.38-.548-.404-.98z"/>
    </g>
</svg>
