<?xml version="1.0" encoding="UTF-8"?>
<svg width="380px" height="101px" viewBox="0 0 380 101" version="1.1" xmlns="http://www.w3.org/2000/svg" xmlns:xlink="http://www.w3.org/1999/xlink">
    <!-- Generator: Sketch 54 (76480) - https://sketchapp.com -->
    <title>Group 2</title>
    <desc>Created with Sketch.</desc>
    <defs>
        <linearGradient x1="20.886725%" y1="11.8647301%" x2="89.6641783%" y2="93.1683263%" id="linearGradient-1">
            <stop stop-color="#2B5993" offset="0%"></stop>
            <stop stop-color="#00AEF0" offset="100%"></stop>
        </linearGradient>
    </defs>
    <g id="Page-1" stroke="none" stroke-width="1" fill="none" fill-rule="evenodd">
        <g id="Create-new-account-with-country-on-top-with-How-did-you-hear-from-us" transform="translate(-322.000000, -115.000000)">
            <g id="Group-2" transform="translate(322.000000, 115.000000)">
                <g id="Insights">
                    <g id="Group-4">
                        <g id="Group" transform="translate(14.992413, 12.051136)" fill="#FFFFFF">
                            <path d="M61.1229135,30.4147727 C61.1229135,47.2123352 47.4400303,60.8295455 30.5614568,60.8295455 C13.6828832,60.8295455 0,47.2123352 0,30.4147727 C0,13.6172102 13.6828832,0 30.5614568,0 C47.4400303,0 61.1229135,13.6172102 61.1229135,30.4147727" id="Fill-1"></path>
                        </g>
                        <path d="M102.063733,71.6976892 L102.063733,18.3989017 L110.48011,18.3989017 L110.48011,71.6976892 L102.063733,71.6976892 Z M135.601722,71.6976892 L125.119506,33.0941388 L125.119506,71.6976892 L117.544767,71.6976892 L117.544767,18.3989017 L128.103495,18.3989017 L136.74941,50.3020331 L136.74941,18.3989017 L144.247637,18.3989017 L144.247637,71.6976892 L135.601722,71.6976892 Z M150.241118,31.1906107 C150.241118,22.6628047 154.449307,17.7897727 162.636147,17.7897727 C170.822986,17.7897727 175.031175,22.6628047 175.031175,31.1906107 L175.031175,32.8657155 L167.073873,32.8657155 L167.073873,30.6576228 C167.073873,26.8505666 165.543622,25.4038852 162.865684,25.4038852 C160.187746,25.4038852 158.657495,26.8505666 158.657495,30.6576228 C158.657495,41.6219448 175.107688,43.6777552 175.107688,58.9059802 C175.107688,67.4337862 170.822986,72.3068182 162.559634,72.3068182 C154.296282,72.3068182 150.01158,67.4337862 150.01158,58.9059802 L150.01158,55.6319118 L157.968883,55.6319118 L157.968883,59.4389681 C157.968883,63.2460243 159.652158,64.6165646 162.330096,64.6165646 C165.008035,64.6165646 166.69131,63.2460243 166.69131,59.4389681 C166.69131,48.4746461 150.241118,46.4188357 150.241118,31.1906107 Z M180.948144,71.6976892 L180.948144,18.3989017 L189.364521,18.3989017 L189.364521,71.6976892 L180.948144,71.6976892 Z M209.130256,49.616763 L209.130256,42.0026505 L220.913184,42.0026505 L220.913184,58.9059802 C220.913184,67.4337862 216.628483,72.3068182 208.365131,72.3068182 C200.101778,72.3068182 195.817077,67.4337862 195.817077,58.9059802 L195.817077,31.1906107 C195.817077,22.6628047 200.101778,17.7897727 208.365131,17.7897727 C216.628483,17.7897727 220.913184,22.6628047 220.913184,31.1906107 L220.913184,36.3682072 L212.955882,36.3682072 L212.955882,30.6576228 C212.955882,26.8505666 211.272607,25.4038852 208.594668,25.4038852 C205.91673,25.4038852 204.233455,26.8505666 204.233455,30.6576228 L204.233455,59.4389681 C204.233455,63.2460243 205.91673,64.6165646 208.594668,64.6165646 C211.272607,64.6165646 212.955882,63.2460243 212.955882,59.4389681 L212.955882,49.616763 L209.130256,49.616763 Z M235.782118,48.8553517 L235.782118,71.6976892 L227.36574,71.6976892 L227.36574,18.3989017 L235.782118,18.3989017 L235.782118,41.2412392 L245.346183,41.2412392 L245.346183,18.3989017 L253.915586,18.3989017 L253.915586,71.6976892 L245.346183,71.6976892 L245.346183,48.8553517 L235.782118,48.8553517 Z M258.608354,26.0130142 L258.608354,18.3989017 L284.622611,18.3989017 L284.622611,26.0130142 L275.823671,26.0130142 L275.823671,71.6976892 L267.407294,71.6976892 L267.407294,26.0130142 L258.608354,26.0130142 Z M288.244204,31.1906107 C288.244204,22.6628047 292.452393,17.7897727 300.639233,17.7897727 C308.826073,17.7897727 313.034261,22.6628047 313.034261,31.1906107 L313.034261,32.8657155 L305.076959,32.8657155 L305.076959,30.6576228 C305.076959,26.8505666 303.546709,25.4038852 300.86877,25.4038852 C298.190832,25.4038852 296.660582,26.8505666 296.660582,30.6576228 C296.660582,41.6219448 313.110774,43.6777552 313.110774,58.9059802 C313.110774,67.4337862 308.826073,72.3068182 300.56272,72.3068182 C292.299368,72.3068182 288.014667,67.4337862 288.014667,58.9059802 L288.014667,55.6319118 L295.971969,55.6319118 L295.971969,59.4389681 C295.971969,63.2460243 297.655244,64.6165646 300.333183,64.6165646 C303.011121,64.6165646 304.694396,63.2460243 304.694396,59.4389681 C304.694396,48.4746461 288.244204,46.4188357 288.244204,31.1906107 Z" id="INSIGHTS" fill="#1D1D1B"></path>
                        <g id="Group-3">
                            <g id="Group" fill="url(#linearGradient-1)">
                                <path d="M82.2741506,62.8531504 L82.2741506,36.4792507 C82.2741506,16.331614 65.5661844,0 44.9571252,0 C24.3457669,0 7.63722587,16.331614 7.63722587,36.4792507 L7.63722587,63.2344087 C7.47743453,66.6823595 6.63996698,74.5913188 2.54344587,83.8447152 C-2.964757,96.278895 1.59274488,94.7974342 5.67604585,93.7740568 C9.75819723,92.7552658 18.8749254,88.762087 21.7235796,93.6817521 C24.5699346,98.5985506 26.9449627,102.86979 33.5912478,100.084598 C40.2381076,97.3022725 43.3701328,96.3740662 44.3191094,96.3740662 L45.6095107,96.3740662 C46.5579126,96.3740662 49.6910873,97.3022725 56.3367976,100.084598 C62.9836574,102.86979 65.3581107,98.5985506 68.2061902,93.6817521 C71.05312,88.762087 80.1692734,92.7552658 84.2525743,93.7740568 C88.3353005,94.7974342 92.891078,96.278895 87.3845995,83.8447152 C83.1225392,74.2163671 82.3891084,66.0585866 82.2741506,62.8531504 Z" id="Fill-3"></path>
                            </g>
                            <g id="noun_Line-Graph_1553628_000000" transform="translate(44.673124, 39.694303) scale(-1, -1) translate(-44.673124, -39.694303) translate(23.626084, 23.339189)" fill="#FFFFFF" fill-rule="nonzero" stroke="#FFFFFF" stroke-width="4.17365701">
                                <path d="M36.834311,0 C34.2559093,0 32.1510915,2.10047385 32.1510915,4.67355432 C32.1510915,5.88132678 32.6246755,6.93156371 33.3087413,7.77175325 L27.4152515,17.1713737 C26.9942879,17.06635 26.5733244,17.0138382 26.0997404,17.0138382 C25.2578133,17.0138382 24.4685066,17.2238856 23.7844408,17.6439803 L19.2064622,13.2329853 C19.5748053,12.6028431 19.7326666,11.8151654 19.7326666,11.0274877 C19.7326666,8.45440725 17.6278488,6.3539334 15.0494471,6.3539334 C12.4710453,6.3539334 10.3662275,8.45440725 10.3662275,11.0274877 C10.3662275,12.2352602 10.7871911,13.2854971 11.5238773,14.1256866 L5.94611021,23.1577242 C5.52514665,23.0527005 5.1041831,23.0001887 4.68321954,23.0001887 C2.10481777,23.0001887 0,25.1006625 0,27.673743 C0,30.2468234 2.10481777,32.3472973 4.68321954,32.3472973 C7.26162132,32.3472973 9.36643909,30.2468234 9.36643909,27.673743 C9.36643909,26.4659705 8.94547554,25.4157336 8.20878931,24.5755441 L13.8917973,15.5960183 C14.3127609,15.701042 14.7337244,15.7535539 15.154688,15.7535539 C15.9966151,15.7535539 16.7859217,15.5435065 17.4699875,15.1234117 L22.0479662,19.5344068 C21.6796231,20.164549 21.5217617,20.8997148 21.5217617,21.6873925 C21.5217617,24.260473 23.6265795,26.3609468 26.2049813,26.3609468 C28.783383,26.3609468 30.8882008,24.260473 30.8882008,21.6873925 C30.8882008,20.47962 30.4672373,19.4293831 29.730551,18.5891936 L35.6766613,9.1895731 C36.0976248,9.29459679 36.5185884,9.34710863 36.9395519,9.34710863 C39.5179537,9.34710863 41.6227715,7.24663478 41.6227715,4.67355432 C41.570151,2.10047385 39.4653332,0 36.834311,0 Z" id="Shape"></path>
                            </g>
                        </g>
                    </g>
                </g>
                <g id="Group-5" transform="translate(320.030349, 17.215909)">
                    <path d="M12.3276774,9.09983766 L12.3276774,14.2564123 L13.5401121,14.2564123 C14.1228356,14.2564123 14.5786689,14.1077558 14.9076257,13.8104383 C15.2365825,13.5131208 15.4010585,12.9742409 15.4010585,12.1937825 L15.4010585,11.1067208 C15.4010585,10.4005917 15.274177,9.88958491 15.0204103,9.57368506 C14.7666437,9.25778522 14.3672021,9.09983766 13.8220737,9.09983766 L12.3276774,9.09983766 Z M12.3276774,17.04375 L12.3276774,23.036526 L14.1040352,23.036526 C14.6303661,23.036526 15.0298077,22.8971605 15.3023719,22.6184253 C15.5749361,22.3396902 15.7112162,21.8379744 15.7112162,21.113263 L15.7112162,19.412987 C15.7112162,18.5024522 15.5561389,17.879953 15.2459796,17.5454708 C14.9358203,17.2109886 14.4235953,17.04375 13.7092891,17.04375 L12.3276774,17.04375 Z M13.9066622,6.3125 C15.5232499,6.3125 16.6933787,6.68414131 17.4170837,7.42743506 C18.1407886,8.17072882 18.5026357,9.29494377 18.5026357,10.8001136 L18.5026357,11.4969481 C18.5026357,12.5003946 18.3428591,13.3272965 18.023301,13.9776786 C17.703743,14.6280606 17.1962172,15.1111943 16.5007086,15.4270942 C17.3465975,15.742994 17.9434102,16.2586463 18.2911645,16.9740666 C18.6389188,17.6894868 18.8127934,18.5674894 18.8127934,19.6081006 L18.8127934,21.1968831 C18.8127934,22.702053 18.4180512,23.8494955 17.6285548,24.6392451 C16.8390585,25.4289947 15.6642304,25.8238636 14.1040352,25.8238636 L9.22610015,25.8238636 L9.22610015,6.3125 L13.9066622,6.3125 Z M23.775317,14.5351461 L28.0329366,14.5351461 L28.0329366,17.3224838 L23.775317,17.3224838 L23.775317,23.036526 L29.1325867,23.036526 L29.1325867,25.8238636 L20.6737397,25.8238636 L20.6737397,6.3125 L29.1325867,6.3125 L29.1325867,9.09983766 L23.775317,9.09983766 L23.775317,14.5351461 Z M30.2040407,6.3125 L39.7907339,6.3125 L39.7907339,9.09983766 L36.5481759,9.09983766 L36.5481759,25.8238636 L33.4465987,25.8238636 L33.4465987,9.09983766 L30.2040407,9.09983766 L30.2040407,6.3125 Z M43.0896843,19.635974 L46.0784769,19.635974 L44.5840806,9.7687987 L43.0896843,19.635974 Z M50.1669196,25.8238636 L47.0371462,25.8238636 L46.5014192,22.2839448 L42.6949381,22.2839448 L42.1592111,25.8238636 L39.3113993,25.8238636 L42.4693688,6.3125 L47.00895,6.3125 L50.1669196,25.8238636 Z" id="Beta" fill="#00AEF0" fill-rule="nonzero"></path>
                    <rect id="Rectangle" stroke="#00AEF0" stroke-width="3.45978756" x="1.72989378" y="1.72989378" width="56.0485584" height="28.2174852" rx="3.69044006"></rect>
                </g>
            </g>
        </g>
    </g>
</svg>