<?xml version="1.0" standalone="no"?>
<!DOCTYPE svg PUBLIC "-//W3C//DTD SVG 20010904//EN"
 "http://www.w3.org/TR/2001/REC-SVG-20010904/DTD/svg10.dtd">
<svg version="1.0" xmlns="http://www.w3.org/2000/svg"
 width="16.000000pt" height="16.000000pt" viewBox="0 0 16.000000 16.000000"
 preserveAspectRatio="xMidYMid meet">
<g transform="translate(0.000000,16.000000) scale(0.002941,-0.002941)"
fill="#000000" stroke="none">
<path d="M2565 5324 c-16 -2 -72 -9 -124 -15 -457 -53 -942 -309 -1247 -656
-196 -225 -345 -500 -413 -768 -55 -217 -53 -186 -61 -1140 l-7 -890 -26 -140
c-51 -277 -115 -481 -241 -777 -102 -241 -129 -325 -130 -419 -1 -88 12 -112
72 -128 45 -13 157 6 323 55 372 109 526 127 647 74 66 -30 94 -59 174 -189
145 -232 272 -313 445 -282 33 6 159 49 279 96 308 118 383 139 492 133 98 -6
185 -33 483 -149 207 -80 287 -98 371 -80 119 25 210 113 343 329 64 105 103
137 192 158 115 27 249 10 498 -61 318 -92 407 -106 459 -71 36 23 49 80 36
158 -13 84 -42 168 -133 384 -125 298 -187 497 -238 774 -21 110 -22 155 -29
995 -6 843 -8 885 -29 1000 -57 315 -175 587 -360 830 -60 80 -240 263 -321
329 -351 286 -783 441 -1250 451 -96 2 -188 2 -205 -1z m-290 -1105 c118 -44
228 -196 271 -374 24 -95 24 -295 0 -390 -40 -166 -145 -318 -253 -368 -71
-32 -172 -30 -239 5 -77 41 -139 110 -189 213 -54 109 -75 208 -75 345 0 137
21 236 75 345 99 202 249 284 410 224z m1115 -15 c103 -56 193 -187 237 -344
25 -91 25 -329 0 -420 -60 -215 -196 -364 -345 -377 -255 -22 -460 344 -402
717 36 227 155 400 310 451 49 16 144 3 200 -27z m-1373 -1573 c140 -100 314
-175 488 -213 96 -20 383 -17 480 6 266 62 474 181 659 377 l86 91 -16 -53
c-42 -140 -96 -257 -179 -384 -145 -225 -334 -379 -560 -458 -86 -30 -97 -32
-240 -32 -144 0 -154 2 -244 33 -204 71 -369 198 -517 398 -91 122 -181 307
-219 446 l-13 46 94 -97 c51 -54 133 -126 181 -160z"/>
</g>
</svg>
