<svg xmlns="http://www.w3.org/2000/svg" xmlns:xlink="http://www.w3.org/1999/xlink" width="85" height="25" viewBox="0 0 85 25">
    <defs>
        <path id="wly7dshrpa" d="M0.019 0.051L1.553 0.051 1.553 1.597 0.019 1.597z"/>
    </defs>
    <g fill="none" fill-rule="evenodd">
        <g>
            <g>
                <path fill="#FFF" d="M18.644 10.452c0 4.134-3.351 7.486-7.486 7.486-4.134 0-7.486-3.352-7.486-7.486s3.352-7.486 7.486-7.486c4.135 0 7.486 3.352 7.486 7.486" transform="translate(-20 -19) translate(20 19)"/>
                <path fill="#00AEF0" d="M20.217 15.484V8.987c0-4.964-4.105-8.987-9.17-8.987-5.065 0-9.17 4.023-9.17 8.987v6.591c-.04.85-.245 2.798-1.252 5.078-1.354 3.063-.234 2.698.77 2.446 1.003-.25 3.243-1.235 3.943-.023.7 1.212 1.283 2.264 2.916 1.578 1.634-.686 2.403-.914 2.637-.914h.317c.233 0 1.003.228 2.636.914 1.633.686 2.216-.366 2.916-1.578.7-1.212 2.94-.228 3.943.023 1.004.252 2.123.617.77-2.446-1.047-2.372-1.228-4.382-1.256-5.172zM8.217 4.9c.988 0 1.788 1.242 1.788 2.774s-.8 2.774-1.788 2.774-1.789-1.242-1.789-2.774S7.23 4.9 8.217 4.9m2.83 11.088c-2.176 0-4.008-2.1-4.56-4.436 1.066 1.437 2.712 2.36 4.56 2.36 1.849 0 3.495-.923 4.561-2.36-.552 2.336-2.385 4.436-4.56 4.436m2.83-5.54c-.989 0-1.789-1.242-1.789-2.774s.8-2.774 1.789-2.774c.988 0 1.788 1.242 1.788 2.774s-.8 2.774-1.788 2.774" transform="translate(-20 -19) translate(20 19)"/>
                <path fill="#1D1D1B" d="M27.304 10.558h2.914v4.117c0 2.077-1.06 3.264-3.104 3.264-2.043 0-3.103-1.187-3.103-3.264v-6.75c0-2.078 1.06-3.264 3.103-3.264 2.044 0 3.104 1.186 3.104 3.263v1.262H28.25V7.795c0-.927-.416-1.28-1.079-1.28-.662 0-1.078.353-1.078 1.28v7.01c0 .927.416 1.261 1.078 1.261.663 0 1.079-.334 1.079-1.261v-2.392h-.946v-1.855zM33.72 17.783L31.638 17.783 31.638 4.802 33.72 4.802 33.72 10.365 36.084 10.365 36.084 4.802 38.204 4.802 38.204 17.783 36.084 17.783 36.084 12.219 33.72 12.219zM39.548 7.925c0-2.077 1.117-3.264 3.16-3.264 2.044 0 3.16 1.187 3.16 3.264v6.75c0 2.077-1.116 3.264-3.16 3.264-2.043 0-3.16-1.187-3.16-3.264v-6.75zm2.081 6.88c0 .927.417 1.28 1.079 1.28.662 0 1.078-.353 1.078-1.28v-7.01c0-.927-.416-1.28-1.078-1.28-.662 0-1.079.353-1.079 1.28v7.01zM50.015 4.661c2.025 0 3.066 1.187 3.066 3.264v.408h-1.968v-.538c0-.927-.38-1.28-1.042-1.28s-1.04.353-1.04 1.28c0 2.67 4.068 3.171 4.068 6.88 0 2.077-1.06 3.264-3.103 3.264s-3.103-1.187-3.103-3.264v-.797h1.967v.927c0 .927.417 1.26 1.08 1.26.661 0 1.077-.333 1.077-1.26 0-2.671-4.068-3.172-4.068-6.88 0-2.077 1.04-3.264 3.066-3.264M53.531 4.802L59.964 4.802 59.964 6.657 57.789 6.657 57.789 17.783 55.707 17.783 55.707 6.657 53.531 6.657zM63.098 10.273L65.955 10.273 65.955 12.127 63.098 12.127 63.098 15.929 66.693 15.929 66.693 17.783 61.017 17.783 61.017 4.802 66.693 4.802 66.693 6.657 63.098 6.657zM72.29 17.783c-.113-.334-.19-.538-.19-1.595v-2.04c0-1.205-.416-1.65-1.362-1.65h-.719v5.285h-2.081V4.803h3.141c2.157 0 3.085.982 3.085 2.985v1.02c0 1.335-.436 2.207-1.363 2.633 1.04.426 1.38 1.41 1.38 2.763v2.003c0 .63.02 1.094.228 1.576h-2.12zM70.02 6.657v3.986h.813c.776 0 1.248-.333 1.248-1.372v-1.28c0-.927-.321-1.334-1.059-1.334H70.02zM77.348 13.481L74.718 4.802 76.893 4.802 78.484 10.718 80.073 4.802 82.06 4.802 79.429 13.481 79.429 17.783 77.348 17.783z" transform="translate(-20 -19) translate(20 19)"/>
                <g transform="translate(-20 -19) translate(20 19) translate(82.486 4.802)">
                    <mask id="f6xjbelr0b" fill="#fff">
                        <use xlink:href="#wly7dshrpa"/>
                    </mask>
                    <path fill="#1D1D1B" d="M.787.051c.435 0 .766.324.766.773 0 .448-.33.773-.766.773-.437 0-.768-.325-.768-.773C.019.374.35.05.787.05zm0 1.394c.347 0 .607-.26.607-.621 0-.36-.26-.622-.607-.622-.349 0-.609.261-.609.622 0 .36.26.621.609.621zm.11-.16C.885 1.258.88 1.242.88 1.156v-.1C.88.959.846.924.769.924H.712v.362H.544V.362H.8c.173 0 .25.08.25.242v.019c0 .11-.036.18-.115.214.086.034.115.112.115.222v.1c0 .05.001.088.02.126H.896zM.712.513v.259h.067C.842.772.88.746.88.662V.623C.88.548.854.513.79.513H.71z" mask="url(#f6xjbelr0b)"/>
                </g>
            </g>
        </g>
    </g>
</svg>
