<svg xmlns="http://www.w3.org/2000/svg" width="149" height="149" viewBox="0 0 149 149">
    <g fill="none" fill-rule="evenodd">
        <g>
            <g>
                <path fill="#00AEF0" d="M142.193 117.88V96.815c0-16.091-13.378-29.135-29.878-29.135-16.503 0-29.88 13.044-29.88 29.135v21.37c-.128 2.753-.799 9.07-4.079 16.46-4.41 9.931-.76 8.748 2.509 7.93 3.268-.813 10.567-4.002 12.848-.073 2.279 3.927 4.18 7.338 9.502 5.114 5.322-2.223 7.83-2.964 8.589-2.964h1.033c.76 0 3.268.741 8.589 2.964 5.322 2.224 7.223-1.187 9.503-5.114 2.28-3.93 9.578-.74 12.848.074 3.268.817 6.916 2 2.507-7.93-3.412-7.69-4-14.206-4.091-16.766z" transform="translate(-376 -97) translate(376 97)"/>
                <g fill="#4A4A4A" fill-rule="nonzero">
                    <path d="M137.765 28.613H87.84C79.805 8.716 58.97-2.873 37.829.792 16.685 4.457.969 22.382.098 43.822c-.871 21.439 13.34 40.58 34.116 45.948v9.288H32.3c-.908.007-1.641.747-1.641 1.656v34.243c0 4.988 4.04 9.034 9.028 9.043h11.765c4.985-.016 9.022-4.058 9.029-9.043v-34.243c0-.44-.174-.862-.485-1.171-.31-.311-.732-.485-1.171-.485h-1.886V89.77c1.74-.437 3.45-.975 5.126-1.613 11.722-4.57 21.023-13.793 25.69-25.474h50.01c3.336-.008 6.034-2.713 6.034-6.048V34.661c0-3.335-2.698-6.04-6.033-6.048zM57.197 134.957c0 3.182-2.578 5.76-5.76 5.76h-11.75c-3.183 0-5.76-2.578-5.76-5.76v-2.319h23.27v2.319zm0-32.602v26.986H33.94v-26.986h23.256zM37.44 99.058v-8.64c2.678.5 5.397.756 8.122.763 1.646-.007 3.29-.108 4.924-.303 1.037-.115 2.06-.244 3.096-.432v8.54l-16.142.072zM60.811 85.09c-1.315.5-2.625.931-3.931 1.296-1.094.316-2.203.547-3.298.748-1.094.202-2.059.36-3.096.476-4.348.524-8.75.36-13.046-.49-.547-.1-1.094-.202-1.642-.331-.547-.13-1.094-.303-1.641-.461C15.23 81.045 2.444 63.416 3.297 43.786c.85-19.631 15.12-36.085 34.434-39.705C57.043.459 76.306 10.624 84.21 28.613H73.066c-5.95-9.706-16.576-15.557-27.96-15.394-11.384.163-21.838 6.315-27.51 16.186l-.114.187c-.245.446-.49.893-.72 1.354-.23.46-.332.662-.49 1.008-.327.7-.63 1.42-.907 2.16-.159.432-.331.864-.475 1.296-.144.432-.274.878-.404 1.324-.13.447-.273 1.037-.403 1.556-.13.518-.173.734-.245 1.094-.158.835-.288 1.67-.388 2.52l-.087.835c-.086.965-.144 1.915-.144 2.88 0 .965 0 1.915.144 2.88l.087.85c.105.845.234 1.68.388 2.505.072.375.159.735.245 1.095.087.36.26 1.051.403 1.57.144.518.26.878.404 1.31.144.432.316.864.475 1.296.273.734.576 1.44.921 2.174.144.331.317.677.476 1.008.158.331.475.893.72 1.34l.115.201c5.676 9.864 16.128 16.008 27.51 16.171 11.378.163 22.003-5.68 27.959-15.379h11.16c-4.49 10.292-12.896 18.372-23.357 22.45h-.058zm8.309-56.477H22.032c5.435-7.593 14.198-12.1 23.537-12.1 9.338 0 18.1 4.507 23.537 12.1h.014zm-47.088 34.07H69.12C63.677 70.265 54.916 74.76 45.583 74.76c-9.332 0-18.095-4.495-23.537-12.077h-.014zm87.754-3.297H19.987c-.1-.202-.23-.404-.331-.605l-.086-.187c-.39-.764-.735-1.541-1.052-2.333 0-.144-.1-.274-.144-.403-.345-.908-.633-1.844-.892-2.78l-.202-.676c-.216-.879-.374-1.757-.504-2.65 0-.26-.086-.504-.115-.749-.125-1.114-.193-2.233-.202-3.355.009-1.126.077-2.25.202-3.37 0-.244.086-.49.115-.734.13-.893.288-1.771.504-2.65l.173-.69c.259-.937.547-1.858.893-2.78 0-.13.086-.26.144-.389.302-.806.662-1.584 1.036-2.347.044-.058.077-.121.101-.187.101-.202.23-.389.331-.59h89.828v27.475zm30.73-2.75c-.008 1.516-1.235 2.742-2.751 2.75h-24.696V31.91h24.696c1.519 0 2.75 1.232 2.75 2.75v21.975z" transform="translate(-376 -97) translate(376 97)"/>
                    <path d="M135.23 51.754l-4.579-4.58c.704-1.117 1.079-2.409 1.08-3.73 0-3.975-3.224-7.2-7.2-7.2s-7.2 3.225-7.2 7.2c0 3.977 3.224 7.2 7.2 7.2 1.316-.002 2.604-.376 3.715-1.08l4.58 4.58 1.44 1.44c.305.315.727.492 1.166.49.44 0 .858-.178 1.166-.49.674-.59.764-1.606.202-2.304l-1.57-1.526zm-10.627-4.464c-1.555.005-2.962-.928-3.562-2.363-.6-1.438-.274-3.094.823-4.195 1.099-1.103 2.755-1.434 4.192-.841 1.44.595 2.378 1.997 2.378 3.554-.008 2.114-1.717 3.83-3.83 3.845zM85.09 43.992H52.416c-.626-.058-1.231.242-1.562.778-.332.532-.332 1.21 0 1.742.33.536.936.835 1.562.778H85.09c.85-.08 1.502-.794 1.502-1.65 0-.855-.651-1.569-1.502-1.648zm-41.458 0H25.517c-.851.08-1.502.793-1.502 1.649 0 .855.65 1.57 1.502 1.649h18.115c.851-.08 1.502-.794 1.502-1.65 0-.855-.651-1.569-1.502-1.648zM92.261 4.68c.943 0 1.713-.756 1.728-1.7V1.844C93.907.946 93.154.26 92.254.26c-.902 0-1.654.687-1.736 1.584V2.88c-.02.474.156.933.486 1.274.328.34.783.53 1.257.526zm-.101 9.994c.94-.008 1.7-.774 1.7-1.714v-1.123c0-.955-.774-1.728-1.729-1.728-.955 0-1.728.773-1.728 1.728v1.123c.005.46.192.901.521 1.224.332.321.775.497 1.236.49zm-5.53-5.645h1.21c.897-.082 1.584-.835 1.584-1.735 0-.902-.687-1.654-1.584-1.736h-1.152c-.897.082-1.584.836-1.584 1.736 0 .901.687 1.653 1.584 1.735h-.058zm9.994.158h1.152c.897-.082 1.584-.835 1.584-1.735 0-.901-.687-1.653-1.584-1.735H96.61c-.898.082-1.584.835-1.584 1.735 0 .901.686 1.653 1.584 1.735h.014zm17.885 5.487c.46.007.906-.169 1.235-.49.33-.323.519-.763.522-1.224v-1.123c0-.955-.774-1.728-1.728-1.728-.955 0-1.728.773-1.728 1.728v1.123c0 .94.758 1.706 1.699 1.714zm-.159 9.993c.928.017 1.704-.701 1.757-1.627v-1.138c0-.954-.773-1.728-1.728-1.728s-1.728.774-1.728 1.728v1.138c.053.904.794 1.613 1.7 1.627zm-5.472-5.645h1.167c.897-.082 1.584-.835 1.584-1.735 0-.901-.687-1.653-1.584-1.735h-1.123c-.898.082-1.584.835-1.584 1.735 0 .902.686 1.653 1.584 1.735h-.044zm9.98.159h1.166c.897-.082 1.584-.835 1.584-1.735 0-.902-.687-1.654-1.584-1.736h-1.166c-.898.082-1.584.836-1.584 1.736 0 .901.686 1.653 1.584 1.735zM136.8 4.608c.946-.014 1.706-.782 1.714-1.728V1.757c0-.955-.774-1.728-1.728-1.728-.955 0-1.728.773-1.728 1.728V2.88c.007.956.786 1.728 1.742 1.728zm-.202 9.994c.93.008 1.704-.713 1.757-1.642v-1.195c0-.955-.773-1.728-1.728-1.728s-1.728.773-1.728 1.728v1.123c.015.935.765 1.69 1.7 1.714zm-5.472-5.66h1.152c.618 0 1.188-.33 1.498-.864.308-.534.308-1.193 0-1.728-.31-.534-.88-.864-1.498-.864h-1.123c-.897.082-1.584.836-1.584 1.736 0 .901.687 1.653 1.584 1.735l-.029-.015zm9.994.159h1.166c.898-.082 1.584-.835 1.584-1.735 0-.902-.686-1.654-1.584-1.736h-1.137c-.897.082-1.584.836-1.584 1.736 0 .901.687 1.653 1.584 1.735h-.029zm-2.88 105.293V95.328c-.346-15.327-12.87-27.572-28.202-27.572-15.332 0-27.856 12.245-28.203 27.572v19.34c-.314 4.918-1.489 9.742-3.47 14.255-1.8 4.162-2.679 7.315-1.167 9.101.647.71 1.576 1.094 2.535 1.051.897-.046 1.785-.196 2.65-.446.748-.202 1.295-.375 2.001-.59 1.764-.659 3.61-1.075 5.486-1.239 1.152 0 1.844.288 2.204.922 1.612 2.88 3.427 6.076 7.2 6.076 1.18-.033 2.342-.306 3.412-.806 2.212-1.089 4.535-1.938 6.927-2.534h.893c.095-.015.193-.015.288 0 2.252.684 4.456 1.52 6.595 2.505 1.071.491 2.233.756 3.413.778 3.744 0 5.601-3.269 7.2-6.163.316-.576.979-.85 2.044-.85 1.86.145 3.693.547 5.444 1.195.864.26 1.44.432 1.872.547.934.296 1.9.476 2.88.533.954.046 1.88-.34 2.52-1.051 1.526-1.786.633-4.94-1.167-9.1-1.978-4.58-3.115-9.476-3.355-14.458zm1.31 20.534c-.207.209-.5.31-.792.274h-.273c-.576-.144-1.008-.274-1.44-.418-2.192-.814-4.493-1.299-6.826-1.44-2.134-.166-4.176.903-5.256 2.75-1.627 2.88-2.563 4.32-4.09 4.32-.747-.082-1.465-.334-2.102-.734-6.624-2.88-7.848-2.88-8.309-2.88h-.907c-.46 0-1.685 0-8.294 2.88-2.88 1.253-3.903 0-6.149-3.888-1.054-1.791-3.041-2.821-5.112-2.65-2.258.15-4.48.635-6.595 1.44h-.202c-.533.173-1.037.332-1.44.432l-.36.087c-.324.09-.672-.003-.907-.245-.239-.236-.327-.586-.23-.907.368-1.26.826-2.491 1.368-3.687 2.17-4.933 3.437-10.215 3.744-15.595V95.328c.324-13.372 11.256-24.042 24.63-24.042 13.376 0 24.308 10.67 24.632 24.042v19.123c.28 5.465 1.555 10.832 3.758 15.84.552 1.2 1.033 2.43 1.44 3.687.091.351-.033.724-.316.95h.028z" transform="translate(-376 -97) translate(376 97)"/>
                    <path d="M118.152 83.318c-2.88 0-5.14 3.658-5.14 8.15 0 4.494 2.303 8.151 5.14 8.151 2.837 0 5.155-3.643 5.155-8.15 0-4.507-2.347-8.15-5.155-8.15zm-8.15 26.482c-5.238-.06-10.125-2.638-13.133-6.926 1.584 6.868 6.869 12.96 13.133 12.96 6.264 0 11.52-6.164 13.147-12.96-3.014 4.288-7.906 6.866-13.147 6.926zm-8.15-10.18c2.88 0 5.154-3.644 5.154-8.151s-2.304-8.15-5.155-8.15c-2.851 0-5.155 3.657-5.155 8.15s2.304 8.15 5.155 8.15z" transform="translate(-376 -97) translate(376 97)"/>
                </g>
            </g>
        </g>
    </g>
</svg>
