<svg xmlns="http://www.w3.org/2000/svg" width="18" height="18" viewBox="0 0 18 18">
    <g fill="#00AEF0" fill-rule="nonzero">
        <path d="M9 .267C4.187.267.267 4.187.267 9c0 4.813 3.92 8.733 8.733 8.733 4.813 0 8.733-3.92 8.733-8.733 0-4.813-3.92-8.733-8.733-8.733zm0 15.525A6.8 6.8 0 0 1 2.208 9 6.8 6.8 0 0 1 9 2.208 6.8 6.8 0 0 1 15.792 9 6.8 6.8 0 0 1 9 15.792z"/>
        <path d="M11.736 4.886L9 7.622 6.264 4.886 4.886 6.264 7.622 9l-2.736 2.736 1.378 1.378L9 10.378l2.736 2.736 1.378-1.378L10.378 9l2.736-2.736z"/>
    </g>
</svg>
