<?xml version="1.0" encoding="UTF-8" standalone="no"?>
  <!-- Created with Inkscape (http://www.inkscape.org/) -->
  <svg xmlns:dc="http://purl.org/dc/elements/1.1/" xmlns:cc="http://creativecommons.org/ns#" xmlns:rdf="http://www.w3.org/1999/02/22-rdf-syntax-ns#" xmlns:svg="http://www.w3.org/2000/svg" xmlns="http://www.w3.org/2000/svg" xmlns:inkscape="http://www.inkscape.org/namespaces/inkscape" version="1.1" width="315.53751" height="93.394753" id="svg2" xml:space="preserve">
    <metadata id="metadata8">
      <rdf:RDF>
        <cc:Work rdf:about="">
          <dc:format>image/svg+xml</dc:format>
          <dc:type rdf:resource="http://purl.org/dc/dcmitype/StillImage" />
        </cc:Work>
      </rdf:RDF>
    </metadata>
    <defs id="defs6">
      <clipPath id="clipPath16">
        <path d="m 0,74.716 252.43,0 L 252.43,0 0,0 0,74.716 z" inkscape:connector-curvature="0" id="path18" />
      </clipPath>
    </defs>
    <g transform="matrix(1.25,0,0,-1.25,0,93.39475)" id="g10">
      <g id="g12">
        <g clip-path="url(#clipPath16)" id="g14">
          <g transform="translate(54.6919,44.5664)" id="g20">
            <path d="m 0,0 c 0,-11.644 -9.631,-21.082 -21.511,-21.082 -11.881,0 -21.512,9.438 -21.512,21.082 0,11.643 9.631,21.081 21.512,21.081 C -9.631,21.081 0,11.643 0,0" inkscape:connector-curvature="0" id="path22" style="fill:#ffffff;fill-opacity:1;fill-rule:nonzero;stroke:none" />
          </g>
          <g transform="translate(64.4995,12.6709)" id="g24">
            <path d="m 0,0 c -3.146,7.125 -3.688,13.162 -3.772,15.534 l 0,19.516 c 0,14.909 -12.332,26.995 -27.544,26.995 -15.214,0 -27.546,-12.086 -27.546,-26.995 l 0,-19.798 C -58.98,12.7 -59.598,6.847 -62.623,0 c -4.065,-9.202 -0.701,-8.105 2.313,-7.348 3.013,0.754 9.742,3.709 11.845,0.068 2.101,-3.639 3.854,-6.799 8.759,-4.739 4.907,2.061 7.218,2.748 7.919,2.748 l 0.953,0 c 0.7,0 3.012,-0.687 7.917,-2.748 4.906,-2.06 6.659,1.1 8.761,4.739 2.102,3.641 8.83,0.686 11.844,-0.068 C 0.702,-8.105 4.064,-9.202 0,0 m -39.818,47.325 c 2.967,0 5.372,-3.729 5.372,-8.331 0,-4.602 -2.405,-8.333 -5.372,-8.333 -2.967,0 -5.373,3.731 -5.373,8.333 0,4.602 2.406,8.331 5.373,8.331 m 8.502,-33.303 c -6.538,0 -12.041,6.305 -13.7,13.322 3.203,-4.316 8.147,-7.088 13.7,-7.088 5.552,0 10.496,2.772 13.699,7.088 -1.658,-7.017 -7.163,-13.322 -13.699,-13.322 m 8.502,16.639 c -2.969,0 -5.373,3.731 -5.373,8.333 0,4.602 2.404,8.331 5.373,8.331 2.968,0 5.372,-3.729 5.372,-8.331 0,-4.602 -2.404,-8.333 -5.372,-8.333" inkscape:connector-curvature="0" id="path26" style="fill:#00baf2;fill-opacity:1;fill-rule:nonzero;stroke:none" />
          </g>
          <g transform="translate(82.2231,42.7998)" id="g28">
            <path d="m 0,0 8.753,0 0,-12.366 c 0,-6.238 -3.183,-9.803 -9.322,-9.803 -6.138,0 -9.32,3.565 -9.32,9.803 l 0,20.276 c 0,6.239 3.182,9.803 9.32,9.803 6.139,0 9.322,-3.564 9.322,-9.803 l 0,-3.788 -5.911,0 0,4.178 c 0,2.784 -1.249,3.842 -3.239,3.842 -1.99,0 -3.241,-1.058 -3.241,-3.842 l 0,-21.056 c 0,-2.785 1.251,-3.788 3.241,-3.788 1.99,0 3.239,1.003 3.239,3.788 l 0,7.185 L 0,-5.571 0,0 z" inkscape:connector-curvature="0" id="path30" style="fill:#ffffff;fill-opacity:1;fill-rule:nonzero;stroke:none" />
          </g>
          <g transform="translate(101.2646,21.0762)" id="g32">
            <path d="m 0,0 -6.251,0 0,38.991 6.251,0 0,-16.71 7.104,0 0,16.71 6.366,0 0,-38.991 -6.366,0 0,16.711 L 0,16.711 0,0 z" inkscape:connector-curvature="0" id="path34" style="fill:#ffffff;fill-opacity:1;fill-rule:nonzero;stroke:none" />
          </g>
          <g transform="translate(118.7705,50.71)" id="g36">
            <path d="m 0,0 c 0,6.238 3.354,9.804 9.491,9.804 6.14,0 9.492,-3.566 9.492,-9.804 l 0,-20.276 c 0,-6.239 -3.352,-9.805 -9.492,-9.805 -6.137,0 -9.491,3.566 -9.491,9.805 L 0,0 z m 6.252,-20.666 c 0,-2.785 1.252,-3.844 3.239,-3.844 1.99,0 3.24,1.059 3.24,3.844 l 0,21.056 c 0,2.785 -1.25,3.843 -3.24,3.843 -1.987,0 -3.239,-1.058 -3.239,-3.843 l 0,-21.056 z" inkscape:connector-curvature="0" id="path38" style="fill:#ffffff;fill-opacity:1;fill-rule:nonzero;stroke:none" />
          </g>
          <g transform="translate(150.2031,60.5127)" id="g40">
            <path d="m 0,0 c 6.082,0 9.208,-3.566 9.208,-9.805 l 0,-1.224 -5.911,0 0,1.615 c 0,2.786 -1.138,3.844 -3.128,3.844 -1.988,0 -3.126,-1.058 -3.126,-3.844 0,-8.02 12.221,-9.525 12.221,-20.666 0,-6.238 -3.182,-9.802 -9.322,-9.802 -6.137,0 -9.321,3.564 -9.321,9.802 l 0,2.395 5.911,0 0,-2.785 c 0,-2.783 1.251,-3.786 3.24,-3.786 1.99,0 3.239,1.003 3.239,3.786 0,8.023 -12.219,9.527 -12.219,20.665 C -9.208,-3.566 -6.083,0 0,0" inkscape:connector-curvature="0" id="path42" style="fill:#ffffff;fill-opacity:1;fill-rule:nonzero;stroke:none" />
          </g>
          <g transform="translate(160.7466,60.0684)" id="g44">
            <path d="m 0,0 19.324,0 0,-5.572 -6.535,0 0,-33.42 -6.252,0 0,33.42 L 0,-5.572 0,0 z" inkscape:connector-curvature="0" id="path46" style="fill:#ffffff;fill-opacity:1;fill-rule:nonzero;stroke:none" />
          </g>
          <g transform="translate(189.5347,43.6348)" id="g48">
            <path d="m 0,0 8.583,0 0,-5.57 -8.583,0 0,-11.419 10.799,0 0,-5.571 -17.049,0 0,38.992 17.049,0 0,-5.571 L 0,10.861 0,0 z" inkscape:connector-curvature="0" id="path50" style="fill:#ffffff;fill-opacity:1;fill-rule:nonzero;stroke:none" />
          </g>
          <g transform="translate(217.272,21.0762)" id="g52">
            <path d="m 0,0 c -0.34,1.003 -0.568,1.617 -0.568,4.79 l 0,6.127 c 0,3.621 -1.249,4.958 -4.094,4.958 l -2.158,0 0,-15.875 -6.251,0 0,38.991 9.434,0 c 6.479,0 9.266,-2.953 9.266,-8.969 l 0,-3.064 c 0,-4.008 -1.309,-6.627 -4.094,-7.908 3.126,-1.28 4.15,-4.233 4.15,-8.3 l 0,-6.015 C 5.685,2.84 5.74,1.448 6.366,0 L 0,0 z m -6.82,33.42 0,-11.974 2.445,0 c 2.331,0 3.749,1.001 3.749,4.121 l 0,3.844 c 0,2.785 -0.965,4.009 -3.18,4.009 l -3.014,0 z" inkscape:connector-curvature="0" id="path54" style="fill:#ffffff;fill-opacity:1;fill-rule:nonzero;stroke:none" />
          </g>
          <g transform="translate(232.3345,33.999)" id="g56">
            <path d="m 0,0 -7.9,26.068 6.536,0 4.777,-17.77 4.773,17.77 5.968,0 L 6.253,0 l 0,-12.923 -6.253,0 L 0,0 z" inkscape:connector-curvature="0" id="path58" style="fill:#ffffff;fill-opacity:1;fill-rule:nonzero;stroke:none" />
          </g>
          <g transform="translate(250.1294,60.0913)" id="g60">
            <path d="m 0,0 c 1.309,0 2.301,-0.972 2.301,-2.321 0,-1.347 -0.992,-2.322 -2.301,-2.322 -1.311,0 -2.306,0.975 -2.306,2.322 C -2.306,-0.972 -1.311,0 0,0 m 0,-4.188 c 1.044,0 1.824,0.784 1.824,1.867 0,1.083 -0.78,1.869 -1.824,1.869 -1.047,0 -1.827,-0.786 -1.827,-1.869 0,-1.083 0.78,-1.867 1.827,-1.867 m 0.33,0.481 c -0.034,0.083 -0.048,0.129 -0.048,0.388 l 0,0.298 c 0,0.298 -0.105,0.402 -0.337,0.402 l -0.171,0 0,-1.088 -0.503,0 0,2.774 0.766,0 c 0.518,0 0.75,-0.241 0.75,-0.727 l 0,-0.058 c 0,-0.33 -0.108,-0.539 -0.346,-0.641 0.259,-0.104 0.346,-0.338 0.346,-0.669 l 0,-0.298 c 0,-0.149 0.005,-0.265 0.059,-0.381 l -0.516,0 z m -0.556,2.319 0,-0.777 0.204,0 c 0.187,0 0.304,0.078 0.304,0.331 l 0,0.116 c 0,0.227 -0.079,0.33 -0.27,0.33 l -0.238,0 z" inkscape:connector-curvature="0" id="path62" style="fill:#ffffff;fill-opacity:1;fill-rule:nonzero;stroke:none" />
          </g>
        </g>
      </g>
    </g>
  </svg>
